<?xml version="1.0" encoding="utf-8"?>
<!-- Generator: Adobe Illustrator 15.0.0, SVG Export Plug-In . SVG Version: 6.00 Build 0)  -->
<!DOCTYPE svg PUBLIC "-//W3C//DTD SVG 1.1//EN" "http://www.w3.org/Graphics/SVG/1.1/DTD/svg11.dtd">
<svg version="1.1" id="Layer_1" xmlns="http://www.w3.org/2000/svg" xmlns:xlink="http://www.w3.org/1999/xlink" x="0px" y="0px"
	 width="115.199px" height="97.197px" viewBox="0 0 115.199 97.197" enable-background="new 0 0 115.199 97.197"
	 xml:space="preserve">
<g id="change1">
	<path fill-rule="evenodd" clip-rule="evenodd" fill="#E9482B" d="M111.6,89.997c0,1.99-1.609,3.6-3.6,3.6H14.4
		c-1.99,0-3.601-1.61-3.601-3.6V36c0-1.758,1.272-3.262,3.009-3.551l19.597-3.27l6.448-16.116c0.548-1.367,1.869-2.264,3.346-2.264
		h36c1.471,0,2.792,0.896,3.34,2.264l6.448,16.116l19.603,3.27c1.737,0.289,3.01,1.793,3.01,3.551V89.997z"/>
</g>
<g id="change2">
	<circle fill="#1E365C" cx="44.381" cy="58.904" r="1.885"/>
	<path fill-rule="evenodd" clip-rule="evenodd" fill="#1E365C" d="M57.6,25.207c-15.912,0-28.8,12.888-28.8,28.8
		c0,15.904,12.888,28.8,28.8,28.8c15.904,0,28.801-12.896,28.801-28.8C86.4,38.095,73.504,25.207,57.6,25.207 M73.996,68.059
		c-7.762,9.06-21.396,10.107-30.451,2.345c-9.064-7.762-10.104-21.399-2.342-30.459c7.756-9.057,21.396-10.097,30.452-2.338
		C80.711,45.366,81.76,59,73.996,68.059"/>
	<path fill-rule="evenodd" clip-rule="evenodd" fill="#1E365C" d="M57.6,39.604c-7.952,0-14.4,6.448-14.4,14.396v0.003
		c0,0.995,0.803,1.8,1.801,1.8c0.991,0,1.8-0.805,1.8-1.8V54c0-5.962,4.831-10.796,10.8-10.796c0.992,0,1.801-0.805,1.801-1.8
		C59.4,40.409,58.592,39.604,57.6,39.604"/>
	<path fill-rule="evenodd" clip-rule="evenodd" fill="#1E365C" d="M106.172,21.748l-15.603-2.602L85.627,6.785
		C83.975,2.662,80.037,0,75.6,0h-36c-4.437,0-8.374,2.662-10.033,6.792l-4.936,12.354L9.027,21.748C3.797,22.616,0,27.091,0,32.4
		v53.997c0,5.952,4.844,10.8,10.8,10.8H104.4c5.955,0,10.799-4.848,10.799-10.8V32.4C115.199,27.091,111.402,22.616,106.172,21.748
		 M108,86.396c0,1.99-1.61,3.6-3.6,3.6H10.8c-1.989,0-3.601-1.61-3.601-3.6V32.4c0-1.758,1.273-3.262,3.01-3.551l19.596-3.27
		l6.448-16.115C36.801,8.097,38.123,7.2,39.6,7.2h36c1.47,0,2.791,0.896,3.34,2.264l6.447,16.115l19.604,3.27
		c1.736,0.289,3.01,1.793,3.01,3.551V86.396z"/>
	<path fill-rule="evenodd" clip-rule="evenodd" fill="#1E365C" d="M57.6,25.207c-15.912,0-28.8,12.888-28.8,28.8
		c0,15.904,12.888,28.8,28.8,28.8c15.904,0,28.801-12.896,28.801-28.8C86.4,38.095,73.504,25.207,57.6,25.207 M73.996,68.059
		c-7.762,9.06-21.396,10.107-30.451,2.345c-9.064-7.762-10.104-21.399-2.342-30.459c7.756-9.057,21.396-10.097,30.452-2.338
		C80.711,45.366,81.76,59,73.996,68.059"/>
	<path fill-rule="evenodd" clip-rule="evenodd" fill="#1E365C" d="M57.6,39.604c-7.952,0-14.4,6.448-14.4,14.396v0.003
		c0,0.995,0.803,1.8,1.801,1.8c0.991,0,1.8-0.805,1.8-1.8V54c0-5.962,4.831-10.796,10.8-10.796c0.992,0,1.801-0.805,1.801-1.8
		C59.4,40.409,58.592,39.604,57.6,39.604"/>
</g>
</svg>
